<svg width="24" height="24" viewBox="0 0 24 24" fill="#323232" xmlns="http://www.w3.org/2000/svg" class="Icon Icon--IconSearchUsers"><path d="M12.846 6.895A4 4 0 1 0 10 11.874a5.996 5.996 0 0 1 2.845-4.979zm-2.47 7.198A11.406 11.406 0 0 0 9 14c-2.67 0-8 1.34-8 4v2h16v-2c0-.028 0-.055-.002-.083a6.002 6.002 0 0 1-6.623-3.824zm9.486.825h-.497l-.176-.17a4.07 4.07 0 0 0 .987-2.66 4.088 4.088 0 1 0-4.088 4.088 4.07 4.07 0 0 0 2.66-.987l.17.176v.497L22.063 19l.937-.937-3.138-3.145zm-3.774 0a2.826 2.826 0 0 1-2.83-2.83 2.826 2.826 0 0 1 2.83-2.83 2.826 2.826 0 0 1 2.83 2.83 2.826 2.826 0 0 1-2.83 2.83z"/><path fill="none" d="M0 0h24v24H0z"/></svg>