<svg width="24" height="24" viewBox="0 0 24 24" fill="#323232" xmlns="http://www.w3.org/2000/svg" class="Icon Icon--IconPDF"><path d="M20.12 6.3c.215.205.398.485.55.838.154.354.23.678.23.973v12.73c0 .294-.107.544-.32.75-.215.207-.474.31-.78.31H4.4c-.306 0-.565-.103-.78-.31a1.005 1.005 0 0 1-.32-.75V3.16c0-.294.107-.544.32-.75.215-.207.474-.31.78-.31h10.267c.305 0 .64.074 1.008.22.367.148.657.325.87.53l3.576 3.45zm-5.087-2.697v4.154h4.31c-.078-.213-.162-.364-.253-.453l-3.587-3.458c-.092-.09-.248-.17-.47-.243zm4.4 16.883V9.17h-4.766c-.306 0-.566-.102-.78-.308a1.007 1.007 0 0 1-.32-.75V3.513h-8.8v16.972h14.666zm-5.89-6.552c.253.19.574.397.963.618.45-.05.898-.077 1.34-.077 1.124 0 1.8.18 2.03.54.12.163.13.355.022.576 0 .008-.004.016-.012.023l-.022.022v.01c-.046.28-.317.42-.814.42-.367 0-.806-.073-1.318-.22a8.458 8.458 0 0 1-1.49-.586c-1.687.176-3.185.482-4.49.917-1.17 1.93-2.094 2.894-2.774 2.894a.68.68 0 0 1-.32-.076l-.276-.133-.068-.054c-.077-.073-.1-.206-.07-.398.07-.294.283-.63.642-1.01.36-.38.864-.735 1.513-1.067.106-.065.194-.043.262.068.016.014.023.03.023.044.398-.626.806-1.352 1.226-2.177.52-1.002.918-1.967 1.193-2.895a8.678 8.678 0 0 1-.35-1.762c-.05-.57-.024-1.04.075-1.41.084-.294.245-.44.48-.44h.253c.177 0 .31.054.402.165.138.155.172.405.104.75a.242.242 0 0 1-.046.09c.007.022.01.05.01.088v.332c-.014.907-.067 1.614-.16 2.122.42 1.208.98 2.085 1.674 2.63zm-6.6 4.54c.398-.176.92-.758 1.57-1.745-.39.294-.723.603-1.002.927-.278.324-.467.597-.566.818zm4.56-10.164c-.113.31-.12.795-.022 1.458.01-.05.036-.214.08-.486 0-.022.028-.18.082-.475a.241.241 0 0 1 .046-.09c-.008-.006-.012-.013-.012-.02 0-.008-.002-.014-.006-.017-.004-.004-.005-.01-.005-.017a.626.626 0 0 0-.15-.398.03.03 0 0 1-.01.022v.023zm-1.42 7.303a17.287 17.287 0 0 1 3.255-.895 1.54 1.54 0 0 1-.15-.105 1.828 1.828 0 0 1-.183-.15c-.58-.493-1.065-1.14-1.455-1.944-.206.633-.523 1.358-.95 2.176-.23.412-.402.718-.517.917zm7.402-.177c-.183-.177-.718-.265-1.604-.265.582.207 1.055.31 1.422.31.107 0 .176-.003.206-.01 0-.008-.007-.02-.023-.034z"/><path fill="none" d="M0 0h24v24H0"/></svg>