<svg fill="#323232" width="24" height="24" viewBox="0 0 24 24" xmlns="http://www.w3.org/2000/svg" class="Icon Icon--IconExcel"><path d="M20.12 6.3c.215.205.398.485.55.838.154.354.23.678.23.973v12.73c0 .295-.107.545-.32.75-.215.208-.474.31-.78.31H4.4c-.306 0-.565-.102-.78-.31a1.002 1.002 0 0 1-.32-.75V3.16c0-.294.107-.544.32-.75.215-.207.474-.31.78-.31h10.267c.305 0 .64.074 1.008.22.367.148.657.325.87.53L20.12 6.3zm-5.087-2.697v4.154h4.31c-.078-.213-.162-.364-.253-.453l-3.587-3.458c-.092-.09-.248-.17-.47-.243zm4.4 16.883V9.17h-4.766c-.306 0-.566-.102-.78-.308a1.005 1.005 0 0 1-.32-.75v-4.6h-8.8v16.973h14.666zM15.545 10H13.43l-1.495 2.204L10.44 10H8.324l2.534 3.79L8 18h3.935v-1.43h-.784l.785-1.173L13.675 18h2.195l-2.86-4.212L15.546 10z"/><path fill="none" d="M0 0h24v24H0"/></svg>