<svg width="24" height="24" viewBox="0 0 24 24" fill="#323232" xmlns="http://www.w3.org/2000/svg" class="Icon Icon--IconAccount_outline"><path d="M12 6c1.66 0 3 1.34 3 3s-1.34 3-3 3-3-1.34-3-3 1.34-3 3-3zm0-4C6.478 2 2 6.478 2 12s4.467 10 10 10c5.522 0 10-4.478 10-10S17.522 2 12 2zm0 18c-4.423 0-8-3.577-8-8s3.577-8 8-8 8 3.577 8 8-3.577 8-8 8zm0-2c-2.083 0-3.925-1.016-5-2.556.025-1.58 3.333-2.444 5-2.444 1.658 0 4.975.865 5 2.444C15.925 16.984 14.083 18 12 18z"/><path d="M0 0h24v24H0" fill="none"/></svg>